<?xml version="1.0" encoding="utf-8"?>
<!-- Generator: Adobe Illustrator 16.0.0, SVG Export Plug-In . SVG Version: 6.00 Build 0)  -->
<!DOCTYPE svg PUBLIC "-//W3C//DTD SVG 1.1//EN" "http://www.w3.org/Graphics/SVG/1.1/DTD/svg11.dtd">
<svg version="1.1" id="Layer_1" xmlns="http://www.w3.org/2000/svg" xmlns:xlink="http://www.w3.org/1999/xlink" x="0px" y="0px"
	 width="150px" height="150px" viewBox="0 0 150 150" enable-background="new 0 0 150 150" xml:space="preserve">
<g>
	<g>
		<path fill="#FFFFFF" d="M106.315,91.105c-2.467,0-4.474-2.007-4.474-4.474V20.316c0-2.467,2.007-4.474,4.474-4.474h37.369
			c2.467,0,4.474,2.007,4.474,4.474v66.316c0,2.467-2.007,4.474-4.474,4.474H106.315z"/>
		<path fill="#82BADE" d="M143.685,17.684c1.451,0,2.631,1.181,2.631,2.632v66.316c0,1.45-1.18,2.632-2.631,2.632h-37.369
			c-1.451,0-2.631-1.182-2.631-2.632V20.316c0-1.451,1.18-2.632,2.631-2.632H143.685 M143.685,14h-37.369
			c-3.487,0-6.315,2.828-6.315,6.316v66.316c0,3.487,2.828,6.315,6.315,6.315h37.369c3.487,0,6.315-2.828,6.315-6.315V20.316
			C150,16.828,147.172,14,143.685,14L143.685,14z"/>
	</g>
	<g>
		<path fill="#FFFFFF" d="M90.597,100.338c-2.837,0-5.146-2.308-5.146-5.145V18.93c0-2.837,2.309-5.145,5.146-5.145h42.974
			c2.837,0,5.146,2.308,5.146,5.145v76.263c0,2.837-2.309,5.145-5.146,5.145H90.597z"/>
		<path fill="#73ACD7" d="M133.57,15.903c1.669,0,3.026,1.358,3.026,3.027v76.263c0,1.668-1.357,3.026-3.026,3.026H90.597
			c-1.669,0-3.026-1.358-3.026-3.026V18.93c0-1.669,1.357-3.027,3.026-3.027H133.57 M133.57,11.667H90.597
			c-4.011,0-7.263,3.251-7.263,7.263v76.263c0,4.011,3.252,7.263,7.263,7.263h42.974c4.011,0,7.263-3.252,7.263-7.263V18.93
			C140.833,14.918,137.581,11.667,133.57,11.667L133.57,11.667z"/>
	</g>
	<g>
		<path fill="#FFFFFF" d="M74.877,109.57c-3.207,0-5.815-2.609-5.815-5.815V17.544c0-3.207,2.608-5.815,5.815-5.815h48.579
			c3.207,0,5.816,2.608,5.816,5.815v86.211c0,3.206-2.609,5.815-5.816,5.815H74.877z"/>
		<path fill="#639FD1" d="M123.456,14.123c1.887,0,3.421,1.535,3.421,3.421v86.211c0,1.886-1.534,3.421-3.421,3.421H74.877
			c-1.887,0-3.42-1.535-3.42-3.421V17.544c0-1.887,1.534-3.421,3.42-3.421H123.456 M123.456,9.333H74.877
			c-4.534,0-8.21,3.676-8.21,8.211v86.211c0,4.533,3.676,8.21,8.21,8.21h48.579c4.534,0,8.211-3.677,8.211-8.21V17.544
			C131.667,13.009,127.99,9.333,123.456,9.333L123.456,9.333z"/>
	</g>
	<g>
		<path fill="#FFFFFF" d="M59.157,118.803c-3.577,0-6.486-2.91-6.486-6.487V16.158c0-3.577,2.91-6.487,6.486-6.487h54.185
			c3.576,0,6.486,2.91,6.486,6.487v96.158c0,3.577-2.91,6.487-6.486,6.487H59.157z"/>
		<path fill="#5392CA" d="M113.342,12.342c2.104,0,3.815,1.712,3.815,3.816v96.158c0,2.104-1.712,3.815-3.815,3.815H59.157
			c-2.104,0-3.815-1.712-3.815-3.815V16.158c0-2.104,1.712-3.816,3.815-3.816H113.342 M113.342,7H59.157C54.1,7,50,11.1,50,16.158
			v96.158c0,5.058,4.1,9.157,9.157,9.157h54.185c5.057,0,9.158-4.1,9.158-9.157V16.158C122.5,11.1,118.398,7,113.342,7L113.342,7z"
			/>
	</g>
	<g>
		<path fill="#FFFFFF" d="M43.438,128.035c-3.947,0-7.158-3.211-7.158-7.158V14.772c0-3.947,3.211-7.158,7.158-7.158h59.79
			c3.946,0,7.158,3.211,7.158,7.158v106.104c0,3.947-3.212,7.158-7.158,7.158H43.438z"/>
		<path fill="#4287C4" d="M103.229,10.562c2.321,0,4.21,1.889,4.21,4.211v106.104c0,2.322-1.889,4.211-4.21,4.211h-59.79
			c-2.321,0-4.21-1.889-4.21-4.211V14.772c0-2.322,1.889-4.211,4.21-4.211H103.229 M103.229,4.667h-59.79
			c-5.581,0-10.105,4.524-10.105,10.105v106.104c0,5.581,4.524,10.105,10.105,10.105h59.79c5.58,0,10.104-4.524,10.104-10.105
			V14.772C113.333,9.191,108.809,4.667,103.229,4.667L103.229,4.667z"/>
	</g>
	<g>
		<path fill="#FFFFFF" d="M27.719,137.268c-4.317,0-7.829-3.512-7.829-7.829V13.386c0-4.317,3.512-7.829,7.829-7.829h65.395
			c4.316,0,7.829,3.512,7.829,7.829v116.053c0,4.317-3.513,7.829-7.829,7.829H27.719z"/>
		<path fill="#2D7CBF" d="M93.114,8.781c2.539,0,4.604,2.066,4.604,4.605v116.053c0,2.539-2.065,4.605-4.604,4.605H27.719
			c-2.54,0-4.605-2.066-4.605-4.605V13.386c0-2.539,2.065-4.605,4.605-4.605H93.114 M93.114,2.333H27.719
			c-6.104,0-11.053,4.949-11.053,11.053v116.053c0,6.104,4.949,11.053,11.053,11.053h65.395c6.104,0,11.053-4.949,11.053-11.053
			V13.386C104.167,7.282,99.218,2.333,93.114,2.333L93.114,2.333z"/>
	</g>
	<g>
		<path fill="#FFFFFF" d="M12,146.5c-4.687,0-8.5-3.813-8.5-8.5V12c0-4.687,3.813-8.5,8.5-8.5h71c4.687,0,8.5,3.813,8.5,8.5v126
			c0,4.687-3.813,8.5-8.5,8.5H12z"/>
		<path fill="#0A72BA" d="M83,7c2.757,0,5,2.243,5,5v126c0,2.757-2.243,5-5,5H12c-2.757,0-5-2.243-5-5V12c0-2.757,2.243-5,5-5H83
			 M83,0H12C5.373,0,0,5.373,0,12v126c0,6.627,5.373,12,12,12h71c6.627,0,12-5.373,12-12V12C95,5.373,89.627,0,83,0L83,0z"/>
	</g>
</g>
<rect x="16.667" y="18.5" fill="#ABAAAA" width="52" height="7.5"/>
<rect x="16.667" y="42.5" fill="#ABAAAA" width="52" height="7.5"/>
<rect x="16.667" y="56.899" fill="#ABAAAA" width="38.675" height="7.5"/>
<rect x="16.667" y="71.298" fill="#ABAAAA" width="57" height="7.5"/>
<rect x="16.667" y="85.697" fill="#ABAAAA" width="50" height="7.5"/>
<rect x="16.667" y="100.096" fill="#ABAAAA" width="61.833" height="7.5"/>
</svg>
